<svg xmlns="http://www.w3.org/2000/svg" width="660" height="680" viewBox="0 0 660 680"><rect width="100%" height="100%" fill="#DDDDDD"/><path fill="#999999" d="m171.075 308.195-18.88 23.1-2.2 2.72q1.85-.92 3.99-1.43 2.13-.5 4.59-.5 3.61 0 7.02 1.19 3.41 1.18 6.01 3.58 2.59 2.4 4.18 5.96 1.58 3.57 1.58 8.32 0 4.44-1.63 8.34-1.62 3.89-4.57 6.8-2.95 2.9-7.11 4.57-4.16 1.67-9.17 1.67-5.11 0-9.15-1.62-4.05-1.63-6.91-4.56-2.86-2.92-4.38-7.04-1.52-4.11-1.52-9.13 0-4.49 1.83-9.22 1.82-4.73 5.65-9.83l15.18-20.37q.79-1.06 2.31-1.81 1.52-.74 3.5-.74h9.68Zm-16.41 55.44q2.59 0 4.77-.88 2.18-.88 3.74-2.47 1.56-1.58 2.44-3.72.88-2.13.88-4.64 0-2.73-.83-4.9-.84-2.18-2.38-3.7t-3.69-2.31q-2.16-.79-4.76-.79-2.59 0-4.7.88-2.12.88-3.61 2.44-1.5 1.56-2.33 3.7-.84 2.13-.84 4.59 0 2.64.73 4.82.72 2.18 2.15 3.72t3.54 2.4q2.12.86 4.89.86Zm67.45-55.44-18.88 23.1-2.2 2.72q1.85-.92 3.99-1.43 2.13-.5 4.59-.5 3.61 0 7.02 1.19 3.41 1.18 6.01 3.58 2.59 2.4 4.18 5.96 1.58 3.57 1.58 8.32 0 4.44-1.63 8.34-1.62 3.89-4.57 6.8-2.95 2.9-7.11 4.57-4.16 1.67-9.17 1.67-5.11 0-9.15-1.62-4.05-1.63-6.91-4.56-2.86-2.92-4.38-7.04-1.52-4.11-1.52-9.13 0-4.49 1.83-9.22 1.82-4.73 5.65-9.83l15.18-20.37q.79-1.06 2.31-1.81 1.52-.74 3.5-.74h9.68Zm-16.41 55.44q2.59 0 4.77-.88 2.18-.88 3.74-2.47 1.56-1.58 2.44-3.72.88-2.13.88-4.64 0-2.73-.83-4.9-.84-2.18-2.38-3.7t-3.69-2.31q-2.16-.79-4.76-.79-2.59 0-4.7.88-2.12.88-3.61 2.44-1.5 1.56-2.33 3.7-.84 2.13-.84 4.59 0 2.64.73 4.82.72 2.18 2.15 3.72t3.54 2.4q2.12.86 4.89.86Zm74.45-23.63q0 8.31-1.79 14.45-1.78 6.14-4.92 10.14-3.15 4.01-7.44 5.97-4.29 1.95-9.26 1.95t-9.22-1.95q-4.25-1.96-7.37-5.97-3.12-4-4.88-10.14-1.76-6.14-1.76-14.45 0-8.36 1.76-14.48 1.76-6.11 4.88-10.12 3.12-4 7.37-5.96t9.22-1.96q4.97 0 9.26 1.96t7.44 5.96q3.14 4.01 4.92 10.12 1.79 6.12 1.79 14.48Zm-11.22 0q0-6.91-1.02-11.44-1.01-4.53-2.7-7.22-1.7-2.68-3.9-3.76-2.2-1.08-4.57-1.08-2.33 0-4.51 1.08-2.18 1.08-3.85 3.76-1.67 2.69-2.66 7.22-.99 4.53-.99 11.44 0 6.91.99 11.44.99 4.53 2.66 7.21 1.67 2.69 3.85 3.77 2.18 1.07 4.51 1.07 2.37 0 4.57-1.07 2.2-1.08 3.9-3.77 1.69-2.68 2.7-7.21 1.02-4.53 1.02-11.44Zm81.09 17.25-5.77 5.67-14.91-14.91-15.05 15-5.76-5.68 15.04-15.09-14.34-14.34 5.72-5.72 14.34 14.34 14.26-14.25 5.81 5.72-14.3 14.3 14.96 14.96Zm67.98-49.06-18.88 23.1-2.2 2.72q1.85-.92 3.98-1.43 2.14-.5 4.6-.5 3.61 0 7.02 1.19 3.41 1.18 6.01 3.58 2.59 2.4 4.18 5.96 1.58 3.57 1.58 8.32 0 4.44-1.63 8.34-1.63 3.89-4.57 6.8-2.95 2.9-7.11 4.57-4.16 1.67-9.17 1.67-5.11 0-9.16-1.62-4.04-1.63-6.9-4.56-2.86-2.92-4.38-7.04-1.52-4.11-1.52-9.13 0-4.49 1.83-9.22 1.82-4.73 5.65-9.83l15.18-20.37q.79-1.06 2.31-1.81 1.52-.74 3.5-.74h9.68Zm-16.41 55.44q2.59 0 4.77-.88 2.18-.88 3.74-2.47 1.56-1.58 2.44-3.72.88-2.13.88-4.64 0-2.73-.83-4.9-.84-2.18-2.38-3.7t-3.7-2.31q-2.15-.79-4.75-.79-2.59 0-4.71.88-2.11.88-3.6 2.44-1.5 1.56-2.34 3.7-.83 2.13-.83 4.59 0 2.64.72 4.82.73 2.18 2.16 3.72 1.43 1.54 3.54 2.4 2.11.86 4.89.86Zm51.12.39q2.69 0 4.71-.77 2.03-.77 3.41-2.13 1.39-1.37 2.09-3.26.71-1.89.71-4.09 0-5.24-2.91-7.92-2.9-2.68-8.01-2.68-5.1 0-8 2.68-2.91 2.68-2.91 7.92 0 2.2.71 4.09.7 1.89 2.09 3.26 1.38 1.36 3.41 2.13 2.02.77 4.7.77Zm0-48.35q-2.42 0-4.18.74-1.76.75-2.92 2.01-1.17 1.25-1.72 2.88t-.55 3.43q0 1.89.46 3.67.47 1.79 1.57 3.17 1.1 1.39 2.9 2.22 1.8.84 4.44.84 2.64 0 4.45-.84 1.8-.83 2.9-2.22 1.1-1.38 1.56-3.17.47-1.78.47-3.67 0-1.8-.58-3.43-.57-1.63-1.71-2.88-1.15-1.26-2.91-2.01-1.76-.74-4.18-.74Zm10.74 22.96q5.81 1.9 8.58 5.79 2.77 3.89 2.77 9.53 0 4.22-1.6 7.65-1.61 3.43-4.51 5.85-2.91 2.42-6.98 3.74-4.07 1.32-9 1.32-4.92 0-8.99-1.32t-6.98-3.74q-2.9-2.42-4.51-5.85-1.6-3.43-1.6-7.65 0-5.64 2.77-9.53 2.77-3.89 8.58-5.79-4.62-1.93-6.93-5.5-2.31-3.56-2.31-8.58 0-3.6 1.47-6.73 1.48-3.12 4.12-5.43 2.64-2.31 6.31-3.61 3.67-1.3 8.07-1.3t8.08 1.3q3.67 1.3 6.31 3.61 2.64 2.31 4.12 5.43 1.47 3.13 1.47 6.73 0 5.02-2.31 8.58-2.31 3.57-6.93 5.5Zm63.62 1.37q0 8.31-1.78 14.45-1.78 6.14-4.93 10.14-3.14 4.01-7.43 5.97-4.29 1.95-9.26 1.95-4.98 0-9.22-1.95-4.25-1.96-7.37-5.97-3.13-4-4.89-10.14-1.76-6.14-1.76-14.45 0-8.36 1.76-14.48 1.76-6.11 4.89-10.12 3.12-4 7.37-5.96 4.24-1.96 9.22-1.96 4.97 0 9.26 1.96t7.43 5.96q3.15 4.01 4.93 10.12 1.78 6.12 1.78 14.48Zm-11.22 0q0-6.91-1.01-11.44-1.01-4.53-2.7-7.22-1.7-2.68-3.9-3.76-2.2-1.08-4.57-1.08-2.34 0-4.51 1.08-2.18 1.08-3.85 3.76-1.68 2.69-2.67 7.22-.99 4.53-.99 11.44 0 6.91.99 11.44.99 4.53 2.67 7.21 1.67 2.69 3.85 3.77 2.17 1.07 4.51 1.07 2.37 0 4.57-1.07 2.2-1.08 3.9-3.77 1.69-2.68 2.7-7.21 1.01-4.53 1.01-11.44Z"/></svg>