<svg viewBox="0 0 100 100" xmlns="http://www.w3.org/2000/svg"><g display="inline"><path d="M64.412 130.393a2.5 2.5 0 0 0-2.473 2.525l-.175 44.9a2.5 2.5 0 1 0 5 .02l.175-44.9a2.5 2.5 0 0 0-2.527-2.545zm-14.351 0a2.5 2.5 0 0 0-2.473 2.525l-.176 44.9a2.5 2.5 0 1 0 5 .02l.176-44.9a2.5 2.5 0 0 0-2.527-2.545zm-13.877 0a2.5 2.5 0 0 0-2.473 2.525l-.176 44.9a2.5 2.5 0 1 0 5 .02l.176-44.9a2.5 2.5 0 0 0-2.527-2.545zM20 100c-11.08 0-20 8.92-20 20v60c0 11.08 8.92 20 20 20h60c11.08 0 20-8.92 20-20v-60c0-11.08-8.92-20-20-20H20zm23.49 14.924h13.02c.873 0 1.578.704 1.578 1.578v3.031h16.994a1.85 1.85 0 0 1 1.856 1.856v2.914a1.85 1.85 0 0 1-1.856 1.855H24.918a1.85 1.85 0 0 1-1.855-1.855v-2.914a1.85 1.85 0 0 1 1.855-1.856h16.994v-3.031c0-.874.705-1.578 1.578-1.578zm-17.002 13.308h47.024v48.89a7.938 7.938 0 0 1-7.955 7.954H34.443a7.938 7.938 0 0 1-7.955-7.955v-48.889z" style="line-height:normal;text-indent:0;text-align:start;text-decoration-line:none;text-decoration-style:solid;text-decoration-color:#000;text-transform:none;block-progression:tb;white-space:normal;isolation:auto;mix-blend-mode:normal;solid-color:#000;solid-opacity:1" transform="translate(0 -100)" color="#000000" font-style="normal" font-variant="normal" font-weight="400" font-stretch="normal" font-size="medium" font-family="sans-serif" text-decoration="none" letter-spacing="normal" word-spacing="normal" direction="ltr" writing-mode="lr-tb" baseline-shift="baseline" text-anchor="start" clip-rule="nonzero" display="inline" overflow="visible" visibility="visible" opacity="1" color-interpolation="sRGB" color-interpolation-filters="linearRGB" fill="#ff0000" fill-opacity="1" fill-rule="evenodd" stroke="none" stroke-width="4.99999952" stroke-linecap="round" stroke-linejoin="round" stroke-miterlimit="4" stroke-dasharray="none" stroke-dashoffset="0" stroke-opacity="1" color-rendering="auto" image-rendering="auto" shape-rendering="auto" text-rendering="auto" enable-background="accumulate" class="fill-000000"></path></g></svg>