<svg width="994" height="489" viewBox="0 0 994 489" fill="none" xmlns="http://www.w3.org/2000/svg">
<ellipse cx="14.2973" cy="14.3022" rx="14.2973" ry="14.3022" fill="#DADADA"/>
<ellipse cx="98.0384" cy="14.3022" rx="13.6164" ry="14.3022" fill="#DADADA"/>
<ellipse cx="55.8274" cy="14.3022" rx="13.6164" ry="14.3022" fill="#DADADA"/>
<ellipse cx="14.2973" cy="55.8468" rx="14.2973" ry="13.6212" fill="#DADADA"/>
<ellipse cx="98.0384" cy="55.8468" rx="13.6164" ry="13.6212" fill="#DADADA"/>
<ellipse cx="55.8274" cy="55.8468" rx="13.6164" ry="13.6212" fill="#DADADA"/>
<ellipse cx="139.568" cy="14.3022" rx="14.2973" ry="14.3022" fill="#DADADA"/>
<ellipse cx="223.99" cy="14.3022" rx="14.2973" ry="14.3022" fill="#DADADA"/>
<ellipse cx="181.779" cy="14.3022" rx="14.2973" ry="14.3022" fill="#DADADA"/>
<ellipse cx="139.568" cy="55.8468" rx="14.2973" ry="13.6212" fill="#DADADA"/>
<ellipse cx="223.99" cy="55.8468" rx="14.2973" ry="13.6212" fill="#DADADA"/>
<ellipse cx="181.779" cy="55.8468" rx="14.2973" ry="13.6212" fill="#DADADA"/>
<ellipse cx="14.2973" cy="98.0723" rx="14.2973" ry="13.6212" fill="#DADADA"/>
<ellipse cx="98.0384" cy="98.0723" rx="13.6164" ry="13.6212" fill="#DADADA"/>
<ellipse cx="55.8274" cy="98.0723" rx="13.6164" ry="13.6212" fill="#DADADA"/>
<ellipse cx="14.2973" cy="139.617" rx="14.2973" ry="14.3022" fill="#DADADA"/>
<ellipse cx="98.0384" cy="139.617" rx="13.6164" ry="14.3022" fill="#DADADA"/>
<ellipse cx="55.8274" cy="139.617" rx="13.6164" ry="14.3022" fill="#DADADA"/>
<ellipse cx="139.568" cy="98.0723" rx="14.2973" ry="13.6212" fill="#DADADA"/>
<ellipse cx="223.99" cy="98.0723" rx="14.2973" ry="13.6212" fill="#DADADA"/>
<ellipse cx="181.779" cy="98.0723" rx="14.2973" ry="13.6212" fill="#DADADA"/>
<ellipse cx="139.568" cy="139.617" rx="14.2973" ry="14.3022" fill="#DADADA"/>
<ellipse cx="223.99" cy="139.617" rx="14.2973" ry="14.3022" fill="#DADADA"/>
<ellipse cx="181.779" cy="139.617" rx="14.2973" ry="14.3022" fill="#DADADA"/>
<ellipse cx="266.201" cy="14.3022" rx="14.2973" ry="14.3022" fill="#DADADA"/>
<ellipse cx="349.942" cy="14.3022" rx="13.6164" ry="14.3022" fill="#DADADA"/>
<ellipse cx="307.732" cy="14.3022" rx="13.6164" ry="14.3022" fill="#DADADA"/>
<ellipse cx="266.201" cy="55.8468" rx="14.2973" ry="13.6212" fill="#DADADA"/>
<ellipse cx="349.942" cy="55.8468" rx="13.6164" ry="13.6212" fill="#DADADA"/>
<ellipse cx="307.732" cy="55.8468" rx="13.6164" ry="13.6212" fill="#DADADA"/>
<ellipse cx="391.473" cy="14.3022" rx="14.2973" ry="14.3022" fill="#DADADA"/>
<ellipse cx="475.895" cy="14.3022" rx="14.2973" ry="14.3022" fill="#DADADA"/>
<ellipse cx="433.684" cy="14.3022" rx="14.2973" ry="14.3022" fill="#DADADA"/>
<ellipse cx="391.473" cy="55.8468" rx="14.2973" ry="13.6212" fill="#DADADA"/>
<ellipse cx="475.895" cy="55.8468" rx="14.2973" ry="13.6212" fill="#DADADA"/>
<ellipse cx="433.684" cy="55.8468" rx="14.2973" ry="13.6212" fill="#DADADA"/>
<ellipse cx="266.201" cy="98.0723" rx="14.2973" ry="13.6212" fill="#DADADA"/>
<ellipse cx="349.942" cy="98.0723" rx="13.6164" ry="13.6212" fill="#DADADA"/>
<ellipse cx="307.732" cy="98.0723" rx="13.6164" ry="13.6212" fill="#DADADA"/>
<ellipse cx="266.201" cy="139.617" rx="14.2973" ry="14.3022" fill="#DADADA"/>
<ellipse cx="349.942" cy="139.617" rx="13.6164" ry="14.3022" fill="#DADADA"/>
<ellipse cx="307.732" cy="139.617" rx="13.6164" ry="14.3022" fill="#DADADA"/>
<ellipse cx="391.473" cy="98.0723" rx="14.2973" ry="13.6212" fill="#DADADA"/>
<ellipse cx="475.895" cy="98.0723" rx="14.2973" ry="13.6212" fill="#DADADA"/>
<ellipse cx="433.684" cy="98.0723" rx="14.2973" ry="13.6212" fill="#DADADA"/>
<ellipse cx="391.473" cy="139.617" rx="14.2973" ry="14.3022" fill="#DADADA"/>
<ellipse cx="475.895" cy="139.617" rx="14.2973" ry="14.3022" fill="#DADADA"/>
<ellipse cx="433.684" cy="139.617" rx="14.2973" ry="14.3022" fill="#DADADA"/>
<ellipse cx="14.2973" cy="181.843" rx="14.2973" ry="14.3022" fill="#DADADA"/>
<ellipse cx="98.0384" cy="181.843" rx="13.6164" ry="14.3022" fill="#DADADA"/>
<ellipse cx="55.8274" cy="181.843" rx="13.6164" ry="14.3022" fill="#DADADA"/>
<ellipse cx="14.2973" cy="223.387" rx="14.2973" ry="13.6212" fill="#DADADA"/>
<ellipse cx="98.0384" cy="223.387" rx="13.6164" ry="13.6212" fill="#DADADA"/>
<ellipse cx="55.8274" cy="223.387" rx="13.6164" ry="13.6212" fill="#DADADA"/>
<ellipse cx="139.568" cy="181.843" rx="14.2973" ry="14.3022" fill="#DADADA"/>
<ellipse cx="223.99" cy="181.843" rx="14.2973" ry="14.3022" fill="#DADADA"/>
<ellipse cx="181.779" cy="181.843" rx="14.2973" ry="14.3022" fill="#DADADA"/>
<ellipse cx="139.568" cy="223.387" rx="14.2973" ry="13.6212" fill="#DADADA"/>
<ellipse cx="223.99" cy="223.387" rx="14.2973" ry="13.6212" fill="#DADADA"/>
<ellipse cx="181.779" cy="223.387" rx="14.2973" ry="13.6212" fill="#DADADA"/>
<ellipse cx="14.2973" cy="265.613" rx="14.2973" ry="13.6212" fill="#DADADA"/>
<ellipse cx="98.0384" cy="265.613" rx="13.6164" ry="13.6212" fill="#DADADA"/>
<ellipse cx="55.8274" cy="265.613" rx="13.6164" ry="13.6212" fill="#DADADA"/>
<ellipse cx="14.2973" cy="307.157" rx="14.2973" ry="14.3022" fill="#DADADA"/>
<ellipse cx="98.0384" cy="307.157" rx="13.6164" ry="14.3022" fill="#DADADA"/>
<ellipse cx="55.8274" cy="307.157" rx="13.6164" ry="14.3022" fill="#DADADA"/>
<ellipse cx="139.568" cy="265.613" rx="14.2973" ry="13.6212" fill="#DADADA"/>
<ellipse cx="223.99" cy="265.613" rx="14.2973" ry="13.6212" fill="#DADADA"/>
<ellipse cx="181.779" cy="265.613" rx="14.2973" ry="13.6212" fill="#DADADA"/>
<ellipse cx="139.568" cy="307.157" rx="14.2973" ry="14.3022" fill="#DADADA"/>
<ellipse cx="223.99" cy="307.157" rx="14.2973" ry="14.3022" fill="#DADADA"/>
<ellipse cx="181.779" cy="307.157" rx="14.2973" ry="14.3022" fill="#DADADA"/>
<ellipse cx="266.201" cy="181.843" rx="14.2973" ry="14.3022" fill="#DADADA"/>
<ellipse cx="349.942" cy="181.843" rx="13.6164" ry="14.3022" fill="#DADADA"/>
<ellipse cx="307.732" cy="181.843" rx="13.6164" ry="14.3022" fill="#DADADA"/>
<ellipse cx="266.201" cy="223.387" rx="14.2973" ry="13.6212" fill="#DADADA"/>
<ellipse cx="349.942" cy="223.387" rx="13.6164" ry="13.6212" fill="#DADADA"/>
<ellipse cx="307.732" cy="223.387" rx="13.6164" ry="13.6212" fill="#DADADA"/>
<ellipse cx="391.473" cy="181.843" rx="14.2973" ry="14.3022" fill="#DADADA"/>
<ellipse cx="475.895" cy="181.843" rx="14.2973" ry="14.3022" fill="#DADADA"/>
<ellipse cx="433.684" cy="181.843" rx="14.2973" ry="14.3022" fill="#DADADA"/>
<ellipse cx="391.473" cy="223.387" rx="14.2973" ry="13.6212" fill="#DADADA"/>
<ellipse cx="475.895" cy="223.387" rx="14.2973" ry="13.6212" fill="#DADADA"/>
<ellipse cx="433.684" cy="223.387" rx="14.2973" ry="13.6212" fill="#DADADA"/>
<ellipse cx="266.201" cy="265.613" rx="14.2973" ry="13.6212" fill="#DADADA"/>
<ellipse cx="349.942" cy="265.613" rx="13.6164" ry="13.6212" fill="#DADADA"/>
<ellipse cx="307.732" cy="265.613" rx="13.6164" ry="13.6212" fill="#DADADA"/>
<ellipse cx="266.201" cy="307.157" rx="14.2973" ry="14.3022" fill="#DADADA"/>
<ellipse cx="349.942" cy="307.157" rx="13.6164" ry="14.3022" fill="#DADADA"/>
<ellipse cx="307.732" cy="307.157" rx="13.6164" ry="14.3022" fill="#DADADA"/>
<ellipse cx="391.473" cy="265.613" rx="14.2973" ry="13.6212" fill="#DADADA"/>
<ellipse cx="475.895" cy="265.613" rx="14.2973" ry="13.6212" fill="#DADADA"/>
<ellipse cx="433.684" cy="265.613" rx="14.2973" ry="13.6212" fill="#DADADA"/>
<ellipse cx="391.473" cy="307.157" rx="14.2973" ry="14.3022" fill="#DADADA"/>
<ellipse cx="475.895" cy="307.157" rx="14.2973" ry="14.3022" fill="#DADADA"/>
<ellipse cx="433.684" cy="307.157" rx="14.2973" ry="14.3022" fill="#DADADA"/>
<ellipse cx="14.2973" cy="349.383" rx="14.2973" ry="14.3022" fill="#DADADA"/>
<ellipse cx="98.0384" cy="349.383" rx="13.6164" ry="14.3022" fill="#DADADA"/>
<ellipse cx="55.8274" cy="349.383" rx="13.6164" ry="14.3022" fill="#DADADA"/>
<ellipse cx="14.2973" cy="390.928" rx="14.2973" ry="13.6212" fill="#DADADA"/>
<ellipse cx="98.0384" cy="390.928" rx="13.6164" ry="13.6212" fill="#DADADA"/>
<ellipse cx="55.8274" cy="390.928" rx="13.6164" ry="13.6212" fill="#DADADA"/>
<ellipse cx="139.568" cy="349.383" rx="14.2973" ry="14.3022" fill="#DADADA"/>
<ellipse cx="223.99" cy="349.383" rx="14.2973" ry="14.3022" fill="#DADADA"/>
<ellipse cx="181.779" cy="349.383" rx="14.2973" ry="14.3022" fill="#DADADA"/>
<ellipse cx="139.568" cy="390.928" rx="14.2973" ry="13.6212" fill="#DADADA"/>
<ellipse cx="223.99" cy="390.928" rx="14.2973" ry="13.6212" fill="#DADADA"/>
<ellipse cx="181.779" cy="390.928" rx="14.2973" ry="13.6212" fill="#DADADA"/>
<ellipse cx="14.2973" cy="433.153" rx="14.2973" ry="13.6212" fill="#DADADA"/>
<ellipse cx="98.0384" cy="433.153" rx="13.6164" ry="13.6212" fill="#DADADA"/>
<ellipse cx="55.8274" cy="433.153" rx="13.6164" ry="13.6212" fill="#DADADA"/>
<ellipse cx="14.2973" cy="474.698" rx="14.2973" ry="14.3022" fill="#DADADA"/>
<ellipse cx="98.0384" cy="474.698" rx="13.6164" ry="14.3022" fill="#DADADA"/>
<ellipse cx="55.8274" cy="474.698" rx="13.6164" ry="14.3022" fill="#DADADA"/>
<ellipse cx="139.568" cy="433.153" rx="14.2973" ry="13.6212" fill="#DADADA"/>
<ellipse cx="223.99" cy="433.153" rx="14.2973" ry="13.6212" fill="#DADADA"/>
<ellipse cx="181.779" cy="433.153" rx="14.2973" ry="13.6212" fill="#DADADA"/>
<ellipse cx="139.568" cy="474.698" rx="14.2973" ry="14.3022" fill="#DADADA"/>
<ellipse cx="223.99" cy="474.698" rx="14.2973" ry="14.3022" fill="#DADADA"/>
<ellipse cx="181.779" cy="474.698" rx="14.2973" ry="14.3022" fill="#DADADA"/>
<ellipse cx="266.201" cy="349.383" rx="14.2973" ry="14.3022" fill="#DADADA"/>
<ellipse cx="349.942" cy="349.383" rx="13.6164" ry="14.3022" fill="#DADADA"/>
<ellipse cx="307.732" cy="349.383" rx="13.6164" ry="14.3022" fill="#DADADA"/>
<ellipse cx="266.201" cy="390.928" rx="14.2973" ry="13.6212" fill="#DADADA"/>
<ellipse cx="349.942" cy="390.928" rx="13.6164" ry="13.6212" fill="#DADADA"/>
<ellipse cx="307.732" cy="390.928" rx="13.6164" ry="13.6212" fill="#DADADA"/>
<ellipse cx="391.473" cy="349.383" rx="14.2973" ry="14.3022" fill="#DADADA"/>
<ellipse cx="475.895" cy="349.383" rx="14.2973" ry="14.3022" fill="#DADADA"/>
<ellipse cx="433.684" cy="349.383" rx="14.2973" ry="14.3022" fill="#DADADA"/>
<ellipse cx="391.473" cy="390.928" rx="14.2973" ry="13.6212" fill="#DADADA"/>
<ellipse cx="475.895" cy="390.928" rx="14.2973" ry="13.6212" fill="#DADADA"/>
<ellipse cx="433.684" cy="390.928" rx="14.2973" ry="13.6212" fill="#DADADA"/>
<ellipse cx="266.201" cy="433.153" rx="14.2973" ry="13.6212" fill="#DADADA"/>
<ellipse cx="349.942" cy="433.153" rx="13.6164" ry="13.6212" fill="#DADADA"/>
<ellipse cx="307.732" cy="433.153" rx="13.6164" ry="13.6212" fill="#DADADA"/>
<ellipse cx="266.201" cy="474.698" rx="14.2973" ry="14.3022" fill="#DADADA"/>
<ellipse cx="349.942" cy="474.698" rx="13.6164" ry="14.3022" fill="#DADADA"/>
<ellipse cx="307.732" cy="474.698" rx="13.6164" ry="14.3022" fill="#DADADA"/>
<ellipse cx="391.473" cy="433.153" rx="14.2973" ry="13.6212" fill="#DADADA"/>
<ellipse cx="475.895" cy="433.153" rx="14.2973" ry="13.6212" fill="#DADADA"/>
<ellipse cx="433.684" cy="433.153" rx="14.2973" ry="13.6212" fill="#DADADA"/>
<ellipse cx="391.473" cy="474.698" rx="14.2973" ry="14.3022" fill="#DADADA"/>
<ellipse cx="475.895" cy="474.698" rx="14.2973" ry="14.3022" fill="#DADADA"/>
<ellipse cx="433.684" cy="474.698" rx="14.2973" ry="14.3022" fill="#DADADA"/>
<ellipse cx="518.105" cy="14.3022" rx="14.2973" ry="14.3022" fill="#DADADA"/>
<ellipse cx="601.847" cy="14.3022" rx="13.6164" ry="14.3022" fill="#DADADA"/>
<ellipse cx="559.636" cy="14.3022" rx="13.6164" ry="14.3022" fill="#DADADA"/>
<ellipse cx="518.105" cy="55.8468" rx="14.2973" ry="13.6212" fill="#DADADA"/>
<ellipse cx="601.847" cy="55.8468" rx="13.6164" ry="13.6212" fill="#DADADA"/>
<ellipse cx="559.636" cy="55.8468" rx="13.6164" ry="13.6212" fill="#DADADA"/>
<ellipse cx="643.377" cy="14.3022" rx="14.2973" ry="14.3022" fill="#DADADA"/>
<ellipse cx="727.799" cy="14.3022" rx="14.2973" ry="14.3022" fill="#DADADA"/>
<ellipse cx="685.588" cy="14.3022" rx="14.2973" ry="14.3022" fill="#DADADA"/>
<ellipse cx="643.377" cy="55.8468" rx="14.2973" ry="13.6212" fill="#DADADA"/>
<ellipse cx="727.799" cy="55.8468" rx="14.2973" ry="13.6212" fill="#DADADA"/>
<ellipse cx="685.588" cy="55.8468" rx="14.2973" ry="13.6212" fill="#DADADA"/>
<ellipse cx="518.105" cy="98.0723" rx="14.2973" ry="13.6212" fill="#DADADA"/>
<ellipse cx="601.847" cy="98.0723" rx="13.6164" ry="13.6212" fill="#DADADA"/>
<ellipse cx="559.636" cy="98.0723" rx="13.6164" ry="13.6212" fill="#DADADA"/>
<ellipse cx="518.105" cy="139.617" rx="14.2973" ry="14.3022" fill="#DADADA"/>
<ellipse cx="601.847" cy="139.617" rx="13.6164" ry="14.3022" fill="#DADADA"/>
<ellipse cx="559.636" cy="139.617" rx="13.6164" ry="14.3022" fill="#DADADA"/>
<ellipse cx="643.377" cy="98.0723" rx="14.2973" ry="13.6212" fill="#DADADA"/>
<ellipse cx="727.799" cy="98.0723" rx="14.2973" ry="13.6212" fill="#DADADA"/>
<ellipse cx="685.588" cy="98.0723" rx="14.2973" ry="13.6212" fill="#DADADA"/>
<ellipse cx="643.377" cy="139.617" rx="14.2973" ry="14.3022" fill="#DADADA"/>
<ellipse cx="727.799" cy="139.617" rx="14.2973" ry="14.3022" fill="#DADADA"/>
<ellipse cx="685.588" cy="139.617" rx="14.2973" ry="14.3022" fill="#DADADA"/>
<ellipse cx="770.01" cy="14.3022" rx="14.2973" ry="14.3022" fill="#DADADA"/>
<ellipse cx="853.751" cy="14.3022" rx="13.6164" ry="14.3022" fill="#DADADA"/>
<ellipse cx="811.54" cy="14.3022" rx="13.6164" ry="14.3022" fill="#DADADA"/>
<ellipse cx="770.01" cy="55.8468" rx="14.2973" ry="13.6212" fill="#DADADA"/>
<ellipse cx="853.751" cy="55.8468" rx="13.6164" ry="13.6212" fill="#DADADA"/>
<ellipse cx="811.54" cy="55.8468" rx="13.6164" ry="13.6212" fill="#DADADA"/>
<ellipse cx="895.281" cy="14.3022" rx="14.2973" ry="14.3022" fill="#DADADA"/>
<ellipse cx="979.703" cy="14.3022" rx="14.2973" ry="14.3022" fill="#DADADA"/>
<ellipse cx="937.492" cy="14.3022" rx="14.2973" ry="14.3022" fill="#DADADA"/>
<ellipse cx="895.281" cy="55.8468" rx="14.2973" ry="13.6212" fill="#DADADA"/>
<ellipse cx="979.703" cy="55.8468" rx="14.2973" ry="13.6212" fill="#DADADA"/>
<ellipse cx="937.492" cy="55.8468" rx="14.2973" ry="13.6212" fill="#DADADA"/>
<ellipse cx="770.01" cy="98.0723" rx="14.2973" ry="13.6212" fill="#DADADA"/>
<ellipse cx="853.751" cy="98.0723" rx="13.6164" ry="13.6212" fill="#DADADA"/>
<ellipse cx="811.54" cy="98.0723" rx="13.6164" ry="13.6212" fill="#DADADA"/>
<ellipse cx="770.01" cy="139.617" rx="14.2973" ry="14.3022" fill="#DADADA"/>
<ellipse cx="853.751" cy="139.617" rx="13.6164" ry="14.3022" fill="#DADADA"/>
<ellipse cx="811.54" cy="139.617" rx="13.6164" ry="14.3022" fill="#DADADA"/>
<ellipse cx="895.281" cy="98.0723" rx="14.2973" ry="13.6212" fill="#DADADA"/>
<ellipse cx="979.703" cy="98.0723" rx="14.2973" ry="13.6212" fill="#DADADA"/>
<ellipse cx="937.492" cy="98.0723" rx="14.2973" ry="13.6212" fill="#DADADA"/>
<ellipse cx="895.281" cy="139.617" rx="14.2973" ry="14.3022" fill="#DADADA"/>
<ellipse cx="979.703" cy="139.617" rx="14.2973" ry="14.3022" fill="#DADADA"/>
<ellipse cx="937.492" cy="139.617" rx="14.2973" ry="14.3022" fill="#DADADA"/>
<ellipse cx="518.105" cy="181.843" rx="14.2973" ry="14.3022" fill="#DADADA"/>
<ellipse cx="601.847" cy="181.843" rx="13.6164" ry="14.3022" fill="#DADADA"/>
<ellipse cx="559.636" cy="181.843" rx="13.6164" ry="14.3022" fill="#DADADA"/>
<ellipse cx="518.105" cy="223.387" rx="14.2973" ry="13.6212" fill="#DADADA"/>
<ellipse cx="601.847" cy="223.387" rx="13.6164" ry="13.6212" fill="#DADADA"/>
<ellipse cx="559.636" cy="223.387" rx="13.6164" ry="13.6212" fill="#DADADA"/>
<ellipse cx="643.377" cy="181.843" rx="14.2973" ry="14.3022" fill="#DADADA"/>
<ellipse cx="727.799" cy="181.843" rx="14.2973" ry="14.3022" fill="#DADADA"/>
<ellipse cx="685.588" cy="181.843" rx="14.2973" ry="14.3022" fill="#DADADA"/>
<ellipse cx="643.377" cy="223.387" rx="14.2973" ry="13.6212" fill="#DADADA"/>
<ellipse cx="727.799" cy="223.387" rx="14.2973" ry="13.6212" fill="#DADADA"/>
<ellipse cx="685.588" cy="223.387" rx="14.2973" ry="13.6212" fill="#DADADA"/>
<ellipse cx="518.105" cy="265.613" rx="14.2973" ry="13.6212" fill="#DADADA"/>
<ellipse cx="601.847" cy="265.613" rx="13.6164" ry="13.6212" fill="#DADADA"/>
<ellipse cx="559.636" cy="265.613" rx="13.6164" ry="13.6212" fill="#DADADA"/>
<ellipse cx="518.105" cy="307.157" rx="14.2973" ry="14.3022" fill="#DADADA"/>
<ellipse cx="601.847" cy="307.157" rx="13.6164" ry="14.3022" fill="#DADADA"/>
<ellipse cx="559.636" cy="307.157" rx="13.6164" ry="14.3022" fill="#DADADA"/>
<ellipse cx="643.377" cy="265.613" rx="14.2973" ry="13.6212" fill="#DADADA"/>
<ellipse cx="727.799" cy="265.613" rx="14.2973" ry="13.6212" fill="#DADADA"/>
<ellipse cx="685.588" cy="265.613" rx="14.2973" ry="13.6212" fill="#DADADA"/>
<ellipse cx="643.377" cy="307.157" rx="14.2973" ry="14.3022" fill="#DADADA"/>
<ellipse cx="727.799" cy="307.157" rx="14.2973" ry="14.3022" fill="#DADADA"/>
<ellipse cx="685.588" cy="307.157" rx="14.2973" ry="14.3022" fill="#DADADA"/>
<ellipse cx="770.01" cy="181.843" rx="14.2973" ry="14.3022" fill="#DADADA"/>
<ellipse cx="853.751" cy="181.843" rx="13.6164" ry="14.3022" fill="#DADADA"/>
<ellipse cx="811.54" cy="181.843" rx="13.6164" ry="14.3022" fill="#DADADA"/>
<ellipse cx="770.01" cy="223.387" rx="14.2973" ry="13.6212" fill="#DADADA"/>
<ellipse cx="853.751" cy="223.387" rx="13.6164" ry="13.6212" fill="#DADADA"/>
<ellipse cx="811.54" cy="223.387" rx="13.6164" ry="13.6212" fill="#DADADA"/>
<ellipse cx="895.281" cy="181.843" rx="14.2973" ry="14.3022" fill="#DADADA"/>
<ellipse cx="979.703" cy="181.843" rx="14.2973" ry="14.3022" fill="#DADADA"/>
<ellipse cx="937.492" cy="181.843" rx="14.2973" ry="14.3022" fill="#DADADA"/>
<ellipse cx="895.281" cy="223.387" rx="14.2973" ry="13.6212" fill="#DADADA"/>
<ellipse cx="979.703" cy="223.387" rx="14.2973" ry="13.6212" fill="#DADADA"/>
<ellipse cx="937.492" cy="223.387" rx="14.2973" ry="13.6212" fill="#DADADA"/>
<ellipse cx="770.01" cy="265.613" rx="14.2973" ry="13.6212" fill="#DADADA"/>
<ellipse cx="853.751" cy="265.613" rx="13.6164" ry="13.6212" fill="#DADADA"/>
<ellipse cx="811.54" cy="265.613" rx="13.6164" ry="13.6212" fill="#DADADA"/>
<ellipse cx="770.01" cy="307.157" rx="14.2973" ry="14.3022" fill="#DADADA"/>
<ellipse cx="853.751" cy="307.157" rx="13.6164" ry="14.3022" fill="#DADADA"/>
<ellipse cx="811.54" cy="307.157" rx="13.6164" ry="14.3022" fill="#DADADA"/>
<ellipse cx="895.281" cy="265.613" rx="14.2973" ry="13.6212" fill="#DADADA"/>
<ellipse cx="979.703" cy="265.613" rx="14.2973" ry="13.6212" fill="#DADADA"/>
<ellipse cx="937.492" cy="265.613" rx="14.2973" ry="13.6212" fill="#DADADA"/>
<ellipse cx="895.281" cy="307.157" rx="14.2973" ry="14.3022" fill="#DADADA"/>
<ellipse cx="979.703" cy="307.157" rx="14.2973" ry="14.3022" fill="#DADADA"/>
<ellipse cx="937.492" cy="307.157" rx="14.2973" ry="14.3022" fill="#DADADA"/>
<ellipse cx="518.105" cy="349.383" rx="14.2973" ry="14.3022" fill="#DADADA"/>
<ellipse cx="601.847" cy="349.383" rx="13.6164" ry="14.3022" fill="#DADADA"/>
<ellipse cx="559.636" cy="349.383" rx="13.6164" ry="14.3022" fill="#DADADA"/>
<ellipse cx="518.105" cy="390.928" rx="14.2973" ry="13.6212" fill="#DADADA"/>
<ellipse cx="601.847" cy="390.928" rx="13.6164" ry="13.6212" fill="#DADADA"/>
<ellipse cx="559.636" cy="390.928" rx="13.6164" ry="13.6212" fill="#DADADA"/>
<ellipse cx="643.377" cy="349.383" rx="14.2973" ry="14.3022" fill="#DADADA"/>
<ellipse cx="727.799" cy="349.383" rx="14.2973" ry="14.3022" fill="#DADADA"/>
<ellipse cx="685.588" cy="349.383" rx="14.2973" ry="14.3022" fill="#DADADA"/>
<ellipse cx="643.377" cy="390.928" rx="14.2973" ry="13.6212" fill="#DADADA"/>
<ellipse cx="727.799" cy="390.928" rx="14.2973" ry="13.6212" fill="#DADADA"/>
<ellipse cx="685.588" cy="390.928" rx="14.2973" ry="13.6212" fill="#DADADA"/>
<ellipse cx="518.105" cy="433.153" rx="14.2973" ry="13.6212" fill="#DADADA"/>
<ellipse cx="601.847" cy="433.153" rx="13.6164" ry="13.6212" fill="#DADADA"/>
<ellipse cx="559.636" cy="433.153" rx="13.6164" ry="13.6212" fill="#DADADA"/>
<ellipse cx="518.105" cy="474.698" rx="14.2973" ry="14.3022" fill="#DADADA"/>
<ellipse cx="601.847" cy="474.698" rx="13.6164" ry="14.3022" fill="#DADADA"/>
<ellipse cx="559.636" cy="474.698" rx="13.6164" ry="14.3022" fill="#DADADA"/>
<ellipse cx="643.377" cy="433.153" rx="14.2973" ry="13.6212" fill="#DADADA"/>
<ellipse cx="727.799" cy="433.153" rx="14.2973" ry="13.6212" fill="#DADADA"/>
<ellipse cx="685.588" cy="433.153" rx="14.2973" ry="13.6212" fill="#DADADA"/>
<ellipse cx="643.377" cy="474.698" rx="14.2973" ry="14.3022" fill="#DADADA"/>
<ellipse cx="727.799" cy="474.698" rx="14.2973" ry="14.3022" fill="#DADADA"/>
<ellipse cx="685.588" cy="474.698" rx="14.2973" ry="14.3022" fill="#DADADA"/>
<ellipse cx="770.01" cy="349.383" rx="14.2973" ry="14.3022" fill="#DADADA"/>
<ellipse cx="853.751" cy="349.383" rx="13.6164" ry="14.3022" fill="#DADADA"/>
<ellipse cx="811.54" cy="349.383" rx="13.6164" ry="14.3022" fill="#DADADA"/>
<ellipse cx="770.01" cy="390.928" rx="14.2973" ry="13.6212" fill="#DADADA"/>
<ellipse cx="853.751" cy="390.928" rx="13.6164" ry="13.6212" fill="#DADADA"/>
<ellipse cx="811.54" cy="390.928" rx="13.6164" ry="13.6212" fill="#DADADA"/>
<ellipse cx="895.281" cy="349.383" rx="14.2973" ry="14.3022" fill="#DADADA"/>
<ellipse cx="979.703" cy="349.383" rx="14.2973" ry="14.3022" fill="#DADADA"/>
<ellipse cx="937.492" cy="349.383" rx="14.2973" ry="14.3022" fill="#DADADA"/>
<ellipse cx="895.281" cy="390.928" rx="14.2973" ry="13.6212" fill="#DADADA"/>
<ellipse cx="979.703" cy="390.928" rx="14.2973" ry="13.6212" fill="#DADADA"/>
<ellipse cx="937.492" cy="390.928" rx="14.2973" ry="13.6212" fill="#DADADA"/>
<ellipse cx="770.01" cy="433.153" rx="14.2973" ry="13.6212" fill="#DADADA"/>
<ellipse cx="853.751" cy="433.153" rx="13.6164" ry="13.6212" fill="#DADADA"/>
<ellipse cx="811.54" cy="433.153" rx="13.6164" ry="13.6212" fill="#DADADA"/>
<ellipse cx="770.01" cy="474.698" rx="14.2973" ry="14.3022" fill="#DADADA"/>
<ellipse cx="853.751" cy="474.698" rx="13.6164" ry="14.3022" fill="#DADADA"/>
<ellipse cx="811.54" cy="474.698" rx="13.6164" ry="14.3022" fill="#DADADA"/>
<ellipse cx="895.281" cy="433.153" rx="14.2973" ry="13.6212" fill="#DADADA"/>
<ellipse cx="979.703" cy="433.153" rx="14.2973" ry="13.6212" fill="#DADADA"/>
<ellipse cx="937.492" cy="433.153" rx="14.2973" ry="13.6212" fill="#DADADA"/>
<ellipse cx="895.281" cy="474.698" rx="14.2973" ry="14.3022" fill="#DADADA"/>
<ellipse cx="979.703" cy="474.698" rx="14.2973" ry="14.3022" fill="#DADADA"/>
<ellipse cx="937.492" cy="474.698" rx="14.2973" ry="14.3022" fill="#DADADA"/>
</svg>
