<svg xmlns="http://www.w3.org/2000/svg" width="1600" height="900" viewBox="0 0 1600 900"><rect width="100%" height="100%" fill="#DDDDDD"/><path fill="#999999" d="M387.205 500.575h24.44v17.39h-75.2v-17.39h27.54v-79.24q0-4.7.28-9.68l-19.55 16.35q-1.69 1.32-3.34 1.65-1.64.33-3.1.04-1.46-.28-2.59-.98-1.12-.71-1.69-1.55l-7.33-10.06 41.45-35.25h19.09v118.72Zm125.58-118.53-40.33 49.35-4.7 5.82q3.95-1.97 8.51-3.05 4.56-1.08 9.82-1.08 7.71 0 15 2.54 7.28 2.53 12.83 7.66 5.54 5.12 8.93 12.73 3.38 7.62 3.38 17.77 0 9.49-3.48 17.81-3.47 8.32-9.77 14.53-6.3 6.2-15.18 9.77-8.89 3.57-19.6 3.57-10.91 0-19.55-3.47-8.65-3.48-14.76-9.73-6.11-6.25-9.35-15.04-3.25-8.79-3.25-19.51 0-9.59 3.9-19.69 3.9-10.11 12.08-21.01l32.43-43.52q1.69-2.26 4.94-3.86 3.24-1.59 7.47-1.59h20.68Zm-35.06 118.44q5.54 0 10.2-1.88 4.65-1.88 7.99-5.27 3.33-3.38 5.21-7.94 1.88-4.56 1.88-9.92 0-5.83-1.78-10.48-1.79-4.65-5.08-7.9-3.29-3.24-7.89-4.93-4.61-1.69-10.16-1.69-5.54 0-10.05 1.88-4.52 1.88-7.71 5.21-3.2 3.34-4.98 7.9-1.79 4.56-1.79 9.82 0 5.64 1.55 10.3 1.55 4.65 4.61 7.94 3.05 3.29 7.56 5.12 4.52 1.84 10.44 1.84Zm159.05-50.48q0 17.76-3.81 30.88-3.81 13.11-10.53 21.66-6.72 8.56-15.88 12.74-9.17 4.18-19.79 4.18t-19.69-4.18q-9.08-4.18-15.75-12.74-6.67-8.55-10.43-21.66-3.76-13.12-3.76-30.88 0-17.86 3.76-30.93 3.76-13.06 10.43-21.62 6.67-8.55 15.75-12.74 9.07-4.18 19.69-4.18 10.62 0 19.79 4.18 9.16 4.19 15.88 12.74 6.72 8.56 10.53 21.62 3.81 13.07 3.81 30.93Zm-23.97 0q0-14.76-2.17-24.44-2.16-9.68-5.78-15.42-3.62-5.73-8.32-8.04-4.7-2.3-9.77-2.3-4.98 0-9.64 2.3-4.65 2.31-8.22 8.04-3.57 5.74-5.69 15.42-2.11 9.68-2.11 24.44 0 14.76 2.11 24.44 2.12 9.68 5.69 15.41 3.57 5.74 8.22 8.04 4.66 2.3 9.64 2.3 5.07 0 9.77-2.3 4.7-2.3 8.32-8.04 3.62-5.73 5.78-15.41 2.17-9.68 2.17-24.44Zm133.01 0q0 17.76-3.81 30.88-3.81 13.11-10.53 21.66-6.72 8.56-15.88 12.74-9.17 4.18-19.79 4.18t-19.69-4.18q-9.08-4.18-15.75-12.74-6.67-8.55-10.43-21.66-3.76-13.12-3.76-30.88 0-17.86 3.76-30.93 3.76-13.06 10.43-21.62 6.67-8.55 15.75-12.74 9.07-4.18 19.69-4.18 10.62 0 19.79 4.18 9.16 4.19 15.88 12.74 6.72 8.56 10.53 21.62 3.81 13.07 3.81 30.93Zm-23.97 0q0-14.76-2.17-24.44-2.16-9.68-5.78-15.42-3.62-5.73-8.32-8.04-4.7-2.3-9.77-2.3-4.98 0-9.64 2.3-4.65 2.31-8.22 8.04-3.57 5.74-5.69 15.42-2.11 9.68-2.11 24.44 0 14.76 2.11 24.44 2.12 9.68 5.69 15.41 3.57 5.74 8.22 8.04 4.66 2.3 9.64 2.3 5.07 0 9.77-2.3 4.7-2.3 8.32-8.04 3.62-5.73 5.78-15.41 2.17-9.68 2.17-24.44Zm173.24 36.85-12.32 12.12-31.86-31.86-32.15 32.05-12.31-12.13 32.14-32.24-30.64-30.64 12.22-12.22 30.64 30.64 30.46-30.45 12.41 12.22-30.55 30.55 31.96 31.96Zm86.85-64.02q0 11.38 5.88 17.35 5.87 5.96 16.68 5.96 5.64 0 10.06-1.78 4.42-1.79 7.43-4.89 3.01-3.1 4.56-7.33 1.55-4.23 1.55-9.12 0-5.55-1.69-9.92-1.7-4.37-4.8-7.38-3.1-3-7.38-4.6-4.27-1.6-9.35-1.6-5.26 0-9.49 1.74t-7.24 4.84q-3.01 3.1-4.61 7.38-1.6 4.28-1.6 9.35Zm-11.37 95.13 42.21-52.73q1.59-1.98 3-3.86t2.73-3.76q-4.7 3.01-10.34 4.56-5.64 1.55-11.84 1.55-7.05 0-13.82-2.44-6.77-2.45-12.03-7.38-5.27-4.94-8.51-12.22-3.24-7.29-3.24-17.06 0-9.12 3.38-17.11t9.49-14.01q6.11-6.01 14.67-9.49 8.55-3.48 18.89-3.48 10.44 0 18.76 3.29 8.31 3.29 14.19 9.21 5.87 5.93 9.02 14.2 3.15 8.27 3.15 18.14 0 6.3-1.08 11.94t-3.05 10.85q-1.98 5.22-4.8 10.2-2.82 4.99-6.3 9.87l-31.11 44.37q-1.6 2.26-4.79 3.81-3.2 1.55-7.24 1.55h-21.34Zm193.73-67.96q0 17.76-3.8 30.88-3.81 13.11-10.53 21.66-6.72 8.56-15.89 12.74-9.16 4.18-19.78 4.18-10.63 0-19.7-4.18-9.07-4.18-15.74-12.74-6.68-8.55-10.44-21.66-3.76-13.12-3.76-30.88 0-17.86 3.76-30.93 3.76-13.06 10.44-21.62 6.67-8.55 15.74-12.74 9.07-4.18 19.7-4.18 10.62 0 19.78 4.18 9.17 4.19 15.89 12.74 6.72 8.56 10.53 21.62 3.8 13.07 3.8 30.93Zm-23.97 0q0-14.76-2.16-24.44-2.16-9.68-5.78-15.42-3.62-5.73-8.32-8.04-4.7-2.3-9.77-2.3-4.99 0-9.64 2.3-4.65 2.31-8.22 8.04-3.58 5.74-5.69 15.42-2.12 9.68-2.12 24.44 0 14.76 2.12 24.44 2.11 9.68 5.69 15.41 3.57 5.74 8.22 8.04 4.65 2.3 9.64 2.3 5.07 0 9.77-2.3 4.7-2.3 8.32-8.04 3.62-5.73 5.78-15.41t2.16-24.44Zm133.01 0q0 17.76-3.8 30.88-3.81 13.11-10.53 21.66-6.72 8.56-15.89 12.74-9.16 4.18-19.78 4.18-10.63 0-19.7-4.18-9.07-4.18-15.74-12.74-6.68-8.55-10.44-21.66-3.76-13.12-3.76-30.88 0-17.86 3.76-30.93 3.76-13.06 10.44-21.62 6.67-8.55 15.74-12.74 9.07-4.18 19.7-4.18 10.62 0 19.78 4.18 9.17 4.19 15.89 12.74 6.72 8.56 10.53 21.62 3.8 13.07 3.8 30.93Zm-23.97 0q0-14.76-2.16-24.44-2.16-9.68-5.78-15.42-3.62-5.73-8.32-8.04-4.7-2.3-9.77-2.3-4.99 0-9.64 2.3-4.65 2.31-8.22 8.04-3.58 5.74-5.69 15.42-2.12 9.68-2.12 24.44 0 14.76 2.12 24.44 2.11 9.68 5.69 15.41 3.57 5.74 8.22 8.04 4.65 2.3 9.64 2.3 5.07 0 9.77-2.3 4.7-2.3 8.32-8.04 3.62-5.73 5.78-15.41t2.16-24.44Z"/></svg>