<svg xmlns="http://www.w3.org/2000/svg" width="192" height="232" viewBox="0 0 192 232"><rect width="100%" height="100%" fill="#DDDDDD"/><path fill="#999999" d="M46.725 122.99h3.38v2.41h-10.4v-2.41h3.81v-10.95q0-.65.03-1.34l-2.7 2.26q-.23.18-.46.23-.23.04-.43 0-.2-.04-.36-.13-.15-.1-.23-.22l-1.01-1.39 5.73-4.87h2.64v16.41Zm9.29-10.75q0 1.58.81 2.4.82.83 2.31.83.78 0 1.39-.25.61-.25 1.03-.68.42-.42.63-1.01.22-.58.22-1.26 0-.77-.24-1.37-.23-.61-.66-1.02-.43-.42-1.02-.64-.59-.22-1.3-.22-.72 0-1.31.24-.58.24-1 .67-.42.43-.64 1.02-.22.59-.22 1.29Zm-1.57 13.16 5.84-7.29q.22-.28.41-.54.2-.26.38-.52-.65.42-1.43.63-.78.22-1.64.22-.97 0-1.91-.34t-1.66-1.02q-.73-.68-1.18-1.69-.45-1.01-.45-2.36 0-1.26.47-2.37.47-1.1 1.31-1.93.85-.83 2.03-1.32 1.18-.48 2.61-.48 1.45 0 2.6.46 1.15.45 1.96 1.27.81.82 1.25 1.97.43 1.14.43 2.5 0 .88-.15 1.66-.15.78-.42 1.5t-.66 1.41q-.39.69-.87 1.36l-4.31 6.14q-.22.31-.66.53-.44.21-1 .21h-2.95Zm20.29-2.99h4.83q.52 0 .82.29.31.29.31.78v1.92h-12.9v-1.07q0-.32.14-.68.13-.36.43-.64l5.71-5.72q.71-.73 1.28-1.39.57-.67.94-1.32.38-.65.58-1.32.2-.67.2-1.41 0-.67-.19-1.19-.2-.51-.56-.86-.35-.35-.85-.53-.5-.17-1.13-.17-.57 0-1.06.16-.49.16-.86.46-.38.29-.64.68-.26.39-.39.86-.22.59-.57.79-.35.19-1.01.09l-1.7-.3q.2-1.35.76-2.37t1.4-1.7q.84-.69 1.92-1.03 1.09-.35 2.33-.35 1.3 0 2.38.39 1.08.38 1.85 1.08.77.7 1.2 1.69.42.99.42 2.2 0 1.04-.3 1.92-.31.89-.82 1.69-.51.81-1.2 1.56-.69.76-1.45 1.54l-4.23 4.33q.61-.19 1.21-.28.61-.1 1.15-.1Zm27.15-1.31-1.71 1.67-4.4-4.4-4.45 4.43-1.7-1.68 4.44-4.46-4.23-4.23 1.69-1.69 4.23 4.23 4.22-4.21 1.71 1.69-4.22 4.23 4.42 4.42Zm15.65 1.31h4.82q.52 0 .83.29.3.29.3.78v1.92h-12.89v-1.07q0-.32.13-.68.14-.36.44-.64l5.71-5.72q.71-.73 1.28-1.39.56-.67.94-1.32.38-.65.58-1.32.2-.67.2-1.41 0-.67-.2-1.19-.19-.51-.55-.86-.36-.35-.86-.53-.5-.17-1.12-.17-.57 0-1.06.16-.49.16-.87.46-.37.29-.63.68-.26.39-.39.86-.22.59-.57.79-.36.19-1.02.09l-1.69-.3q.2-1.35.76-2.37.55-1.02 1.39-1.7.84-.69 1.93-1.03 1.08-.35 2.33-.35 1.3 0 2.38.39 1.08.38 1.85 1.08.76.7 1.19 1.69.43.99.43 2.2 0 1.04-.31 1.92-.3.89-.81 1.69-.52.81-1.21 1.56-.69.76-1.44 1.54l-4.24 4.33q.61-.19 1.22-.28.6-.1 1.15-.1Zm10.24-10.27-1.69-.3q.2-1.35.76-2.37t1.39-1.7q.84-.69 1.93-1.03 1.08-.35 2.33-.35 1.3 0 2.35.37 1.04.37 1.79 1.03.74.66 1.13 1.54.4.89.4 1.91 0 .9-.2 1.58t-.58 1.19q-.38.51-.94.86-.56.35-1.26.58 1.69.54 2.52 1.63.84 1.09.84 2.74 0 1.41-.52 2.49-.52 1.07-1.41 1.81-.88.73-2.05 1.11-1.16.38-2.46.38-1.42 0-2.47-.33-1.05-.32-1.83-.96-.78-.64-1.33-1.56-.54-.92-.93-2.13l1.41-.59q.56-.23 1.05-.12.49.11.71.53.23.45.51.89.28.45.67.79t.92.56q.52.21 1.25.21.82 0 1.43-.26.61-.27 1.02-.7.41-.43.61-.95.21-.53.21-1.06 0-.68-.15-1.23-.14-.55-.6-.94-.45-.39-1.3-.62-.85-.22-2.28-.22v-2.28q1.18-.02 1.96-.23.78-.2 1.24-.57.46-.37.64-.89.19-.52.19-1.15 0-1.32-.74-2.01-.75-.69-1.98-.69-.57 0-1.05.16-.48.16-.87.46-.38.29-.64.68-.26.39-.39.86-.22.59-.58.79-.36.19-1.01.09Zm19.92 10.27h4.82q.52 0 .83.29.3.29.3.78v1.92h-12.89v-1.07q0-.32.13-.68.14-.36.44-.64l5.71-5.72q.71-.73 1.28-1.39.56-.67.94-1.32.38-.65.58-1.32.2-.67.2-1.41 0-.67-.2-1.19-.19-.51-.55-.86-.36-.35-.86-.53-.5-.17-1.12-.17-.57 0-1.06.16-.49.16-.87.46-.37.29-.63.68-.26.39-.39.86-.22.59-.57.79-.36.19-1.02.09l-1.69-.3q.2-1.35.76-2.37.55-1.02 1.39-1.7.84-.69 1.93-1.03 1.08-.35 2.33-.35 1.3 0 2.38.39 1.08.38 1.85 1.08.76.7 1.19 1.69.43.99.43 2.2 0 1.04-.31 1.92-.3.89-.81 1.69-.52.81-1.21 1.56-.69.76-1.44 1.54l-4.24 4.33q.61-.19 1.22-.28.6-.1 1.15-.1Z"/></svg>